<svg width="20" height="20" viewBox="0 0 20 20" fill="none" xmlns="http://www.w3.org/2000/svg">
<path d="M10.7209 2.50018L18.6594 16.2502C18.8895 16.6488 18.7529 17.1585 18.3544 17.3885C18.2277 17.4617 18.084 17.5002 17.9377 17.5002H2.06057C1.60033 17.5002 1.22723 17.1271 1.22723 16.6669C1.22723 16.5205 1.26573 16.3769 1.33888 16.2502L9.27743 2.50018C9.5076 2.1016 10.0172 1.96504 10.4158 2.19516C10.5425 2.2683 10.6477 2.3735 10.7209 2.50018ZM3.50394 15.8335H16.4944L9.9991 4.58352L3.50394 15.8335ZM9.16577 13.3335H10.8324V15.0002H9.16577V13.3335ZM9.16577 7.50018H10.8324V11.6669H9.16577V7.50018Z" fill="#F79009"/>
</svg>
