<svg width="20" height="20" viewBox="0 0 20 20" fill="none" xmlns="http://www.w3.org/2000/svg">
<path d="M9.99988 12.4995C10.8839 12.4995 11.7318 12.1483 12.3569 11.5231C12.982 10.898 13.3332 10.0502 13.3332 9.16612C13.3332 8.28206 12.982 7.43422 12.3569 6.8091C11.7318 6.18398 10.8839 5.83279 9.99988 5.83279C9.11583 5.83279 8.26798 6.18398 7.64286 6.8091C7.01774 7.43422 6.66655 8.28206 6.66655 9.16612C6.66655 10.0502 7.01774 10.898 7.64286 11.5231C8.26798 12.1483 9.11583 12.4995 9.99988 12.4995ZM17.504 2.50195H2.50405C2.28303 2.50195 2.07107 2.58975 1.91479 2.74603C1.75851 2.90231 1.67072 3.11427 1.67072 3.33529V15.002C1.67072 15.223 1.75851 15.4349 1.91479 15.5912C2.07107 15.7475 2.28303 15.8353 2.50405 15.8353H17.504C17.7251 15.8353 17.937 15.7475 18.0933 15.5912C18.2496 15.4349 18.3374 15.223 18.3374 15.002V3.33529C18.3374 3.11427 18.2496 2.90231 18.0933 2.74603C17.937 2.58975 17.7251 2.50195 17.504 2.50195ZM3.33738 12.2045V6.12779C3.80035 5.98861 4.22157 5.7368 4.56334 5.39489C4.9051 5.05297 5.15674 4.63164 5.29572 4.16862H14.7049C14.8443 4.63281 15.097 5.05504 15.4401 5.39732C15.7833 5.7396 16.2062 5.99119 16.6707 6.12945V12.2028C16.2055 12.3414 15.782 12.5937 15.4387 12.9369C15.0953 13.2801 14.8429 13.7034 14.704 14.1686H5.29572C5.15737 13.7046 4.90593 13.2822 4.56397 12.9393C4.22201 12.5965 3.80107 12.344 3.33738 12.2045Z" fill="#384250"/>
</svg>
