<svg width="2456" height="2783" viewBox="0 0 2456 2783" fill="none" xmlns="http://www.w3.org/2000/svg">
<path d="M2034.79 1165.7C2034.79 1662.75 1631.85 2065.7 1134.79 2065.7C637.734 2065.7 234.787 1662.75 234.787 1165.7C234.787 668.642 637.734 265.695 1134.79 265.695C1631.85 265.695 2034.79 668.642 2034.79 1165.7Z" fill="#F4F3F6"/>
<path d="M1157.19 1576.79V2117.03C1157.19 2210.58 1081.36 2286.4 987.827 2286.4H169.974C100.44 2286.4 44.0724 2342.76 44.0724 2412.3V2760.78C44.0724 2772.78 34.3458 2782.51 22.3484 2782.51C10.3498 2782.51 0.623047 2772.78 0.623047 2760.78V2412.3C0.623047 2318.76 76.4444 2242.95 169.974 2242.95H987.84C1057.36 2242.95 1113.72 2186.59 1113.72 2117.06V1576.79H1157.19Z" fill="#2E4785"/>
<path d="M1206.07 1693.39V1779.98C1206.07 1800.64 1189.31 1817.4 1168.64 1817.4H1102.27C1090.87 1817.4 1080.65 1812.3 1073.79 1804.26V1804.24C1068.21 1797.71 1064.85 1789.24 1064.85 1779.98V1693.39H1206.07Z" fill="#2A3C7A"/>
<path d="M1279.84 1491.58V1664.52C1279.84 1691.22 1258.19 1712.87 1231.47 1712.87H1039.44C1012.73 1712.87 991.08 1691.22 991.08 1664.52V1491.58H1279.84Z" fill="#4456AF"/>
<path d="M973.893 1453.5H1297.03C1300.53 1453.5 1303.37 1456.35 1303.37 1459.86V1485.23C1303.37 1488.74 1300.53 1491.58 1297.03 1491.58H973.893C970.386 1491.58 967.533 1488.74 967.533 1485.23V1459.86C967.533 1456.35 970.386 1453.5 973.893 1453.5Z" fill="#384B99"/>
<path d="M1092.12 1453.5H1042.91V1335.8C1042.91 1322.22 1053.93 1311.2 1067.52 1311.2C1081.11 1311.2 1092.12 1322.22 1092.12 1335.8V1453.5Z" fill="#1F2952"/>
<path d="M1228 1453.5H1178.79V1335.8C1178.79 1322.22 1189.8 1311.2 1203.4 1311.2C1216.99 1311.2 1228 1322.22 1228 1335.8V1453.5Z" fill="#1F2952"/>
<path d="M1279.84 1491.58V1664.52C1279.84 1691.22 1258.19 1712.87 1231.47 1712.87H1039.44C1012.73 1712.87 991.08 1691.22 991.08 1664.52C1198.43 1650.11 1217.48 1491.58 1217.48 1491.58H1279.84Z" fill="#384B99"/>
<path d="M1279.84 1505.52H991.08V1491.58H1279.84V1505.52Z" fill="#2A3C7A"/>
<path d="M1279.84 1564.67V1664.52C1279.84 1691.22 1258.19 1712.87 1231.47 1712.87H1096.67C1232.79 1712.87 1279.84 1564.67 1279.84 1564.67Z" fill="#2A3C7A"/>
<path d="M1206.07 1721.91H1064.85V1712.87H1206.07V1721.91Z" fill="#1F2952"/>
<path d="M1092.12 1453.5H1042.91V1436.27H1092.12V1453.5Z" fill="#101527"/>
<path d="M1228 1453.5H1178.79V1436.27H1228V1453.5Z" fill="#101527"/>
<path d="M1206.07 1712.87V1779.98C1206.07 1800.64 1189.31 1817.4 1168.64 1817.4H1102.27C1090.87 1817.4 1080.65 1812.3 1073.79 1804.26V1804.24C1177.24 1816.94 1193.04 1712.87 1193.04 1712.87H1206.07Z" fill="#1F2952"/>
<path d="M2455.95 22.3089C2455.95 34.2956 2446.21 44.0289 2434.23 44.0289H1283.09C1213.56 44.0289 1157.19 100.402 1157.19 169.936V740.855H1113.73V169.936C1113.73 76.4024 1189.55 0.575562 1283.09 0.575562H2434.23C2446.21 0.575562 2455.95 10.3089 2455.95 22.3089Z" fill="#2E4785"/>
<path d="M1206.07 691.962V605.388C1206.07 584.708 1189.31 567.962 1168.64 567.962H1102.27C1090.87 567.962 1080.65 573.069 1073.79 581.109V581.122C1068.21 587.642 1064.85 596.122 1064.85 605.388V691.962H1206.07Z" fill="#2A3C7A"/>
<path d="M1279.84 893.789V720.842C1279.84 694.135 1258.19 672.482 1231.47 672.482H1039.44C1012.73 672.482 991.08 694.135 991.08 720.842V893.789H1279.84Z" fill="#4456AF"/>
<path d="M973.893 931.855H1297.03C1300.53 931.855 1303.37 929.016 1303.37 925.509V900.136C1303.37 896.629 1300.53 893.789 1297.03 893.789H973.893C970.386 893.789 967.533 896.629 967.533 900.136V925.509C967.533 929.016 970.386 931.855 973.893 931.855Z" fill="#384B99"/>
<path d="M1279.84 893.789V720.842C1279.84 694.135 1258.19 672.482 1231.47 672.482H1039.44C1012.73 672.482 991.08 694.135 991.08 720.842C1198.43 735.255 1217.48 893.789 1217.48 893.789H1279.84Z" fill="#384B99"/>
<path d="M1279.84 879.842H991.08V893.789H1279.84V879.842Z" fill="#2A3C7A"/>
<path d="M1279.84 820.695V720.842C1279.84 694.135 1258.19 672.482 1231.47 672.482H1096.67C1232.79 672.482 1279.84 820.695 1279.84 820.695Z" fill="#2A3C7A"/>
<path d="M1206.07 663.456H1064.85V672.482H1206.07V663.456Z" fill="#1F2952"/>
<path d="M1206.07 672.482V605.389C1206.07 584.709 1189.31 567.962 1168.64 567.962H1102.27C1090.87 567.962 1080.65 573.069 1073.79 581.109V581.122C1177.24 568.429 1193.04 672.482 1193.04 672.482H1206.07Z" fill="#1F2952"/>
<path d="M756.706 1082.87H667.293C660.506 1082.87 654.986 1077.36 654.986 1070.56C654.986 1063.76 660.506 1058.26 667.293 1058.26H756.706C763.506 1058.26 769.013 1063.76 769.013 1070.56C769.013 1077.36 763.506 1082.87 756.706 1082.87Z" fill="#4456AF"/>
<path d="M870.186 969.389C863.386 969.389 857.879 963.882 857.879 957.082V867.669C857.879 860.869 863.386 855.362 870.186 855.362C876.986 855.362 882.492 860.869 882.492 867.669V957.082C882.492 963.882 876.986 969.389 870.186 969.389Z" fill="#4456AF"/>
<path d="M788.148 1000.83C785.001 1000.83 781.841 999.616 779.441 997.216L718.028 935.803C713.215 930.989 713.215 923.202 718.028 918.389C722.828 913.589 730.628 913.589 735.428 918.389L796.841 979.816C801.655 984.616 801.655 992.416 796.841 997.216C794.441 999.616 791.295 1000.83 788.148 1000.83Z" fill="#4456AF"/>
<path d="M1514.2 1359.78H1603.61C1610.41 1359.78 1615.92 1365.28 1615.92 1372.08C1615.92 1378.87 1610.41 1384.39 1603.61 1384.39H1514.2C1507.4 1384.39 1501.89 1378.87 1501.89 1372.08C1501.89 1365.28 1507.4 1359.78 1514.2 1359.78Z" fill="#4456AF"/>
<path d="M1400.72 1473.24C1407.52 1473.24 1413.03 1478.76 1413.03 1485.56V1574.96C1413.03 1581.76 1407.52 1587.27 1400.72 1587.27C1393.92 1587.27 1388.41 1581.76 1388.41 1574.96V1485.56C1388.41 1478.76 1393.92 1473.24 1400.72 1473.24Z" fill="#4456AF"/>
<path d="M1482.77 1441.82C1485.92 1441.82 1489.07 1443.02 1491.47 1445.42L1552.89 1506.84C1557.69 1511.64 1557.69 1519.44 1552.89 1524.24C1548.08 1529.06 1540.29 1529.06 1535.48 1524.24L1474.07 1462.83C1469.25 1458.02 1469.25 1450.23 1474.07 1445.42C1476.47 1443.02 1479.61 1441.82 1482.77 1441.82Z" fill="#4456AF"/>
</svg>
